# xmcd
#
# Track frame offsets:
#	150
#	18966
#	38133
#	66902
#	99463
#	121082
#	143584
#	190395
#	214642
#
# Disc length: 3746 seconds
#
# Revision: 1
# Processed by: cddbd v1.5.2PL0 Copyright (c) Steve Scherf et al.
# Submitted via: audiograbber 1.83.01
#
DISCID=750ea009
DTITLE=Ilse de Lange - Dear John
DYEAR=1999
DGENRE=Country
TTITLE0=It'll come to you
TTITLE1=Child of the wild blue yonder
TTITLE2=Angel eyes
TTITLE3=Inside job
TTITLE4=Riding with the king
TTITLE5=Sure Pinocchio
TTITLE6=Feels like rain
TTITLE7=Back of my mind
TTITLE8=Have a little faith in me
EXTD=
EXTT0=
EXTT1=
EXTT2=
EXTT3=
EXTT4=
EXTT5=
EXTT6=
EXTT7=
EXTT8=
PLAYORDER=
